PathFileType	4	(X/Y/Z)	/tmp/tmpjnq7zxqp/Me/MarkerData/slow walking02_segment_0.trc
DataRate	CameraRate	NumFrames	NumMarkers	Units	OrigDataRate	OrigDataStartFrame	OrigNumFrames
100.093	100.093	10	39	m	100.093	807	1077
Frame#	Time	C7			CLAV			LANK			LASI			LBHD			LELB			LFHD			LFIN			LFRM			LHEE			LKNE			LPSI			LSHO			LTHI			LTIB			LTOE			LUPA			LWRA			LWRB			RANK			RASI			RBAK			RBHD			RELB			RFHD			RFIN			RFRM			RHEE			RKNE			RPSI			RSHO			RTHI			RTIB			RTOE			RUPA			RWRA			RWRB			STRN			T10		
		X1	Y1	Z1	X2	Y2	Z2	X3	Y3	Z3	X4	Y4	Z4	X5	Y5	Z5	X6	Y6	Z6	X7	Y7	Z7	X8	Y8	Z8	X9	Y9	Z9	X10	Y10	Z10	X11	Y11	Z11	X12	Y12	Z12	X13	Y13	Z13	X14	Y14	Z14	X15	Y15	Z15	X16	Y16	Z16	X17	Y17	Z17	X18	Y18	Z18	X19	Y19	Z19	X20	Y20	Z20	X21	Y21	Z21	X22	Y22	Z22	X23	Y23	Z23	X24	Y24	Z24	X25	Y25	Z25	X26	Y26	Z26	X27	Y27	Z27	X28	Y28	Z28	X29	Y29	Z29	X30	Y30	Z30	X31	Y31	Z31	X32	Y32	Z32	X33	Y33	Z33	X34	Y34	Z34	X35	Y35	Z35	X36	Y36	Z36	X37	Y37	Z37	X38	Y38	Z38	X39	Y39	Z39

808	8.06251	-0.118248	1.44831	0.0359957	-0.276067	1.35976	0.0191762	0.0336716	0.0983306	0.126126	-0.205351	0.973794	0.191307	-0.222711	1.58593	0.105593	-0.336244	1.09451	0.302127	-0.330587	1.65032	0.0649651	-0.546769	0.841267	0.255952	-0.400179	0.949343	0.283618	0.107128	0.0699977	0.0711691	-0.122769	0.462549	0.164616	-0.061221	0.991833	0.0666977	-0.214059	1.42724	0.200766	-0.161579	0.647292	0.197648	-0.0151268	0.240088	0.162165	-0.133354	0.0633521	0.0719865	-0.283209	1.27036	0.28372	-0.485682	0.913503	0.213617	-0.459133	0.881811	0.273693	-0.441605	0.118758	-0.133217	-0.193986	0.975495	-0.125177	-0.0457064	1.31592	-0.0714706	-0.187989	1.57965	-0.039222	-0.105856	1.08797	-0.239801	-0.297987	1.63478	-0.0596827	-0.110375	0.739741	-0.278748	-0.0921321	1.00042	-0.252064	-0.384989	0.0517685	-0.0715943	-0.341687	0.506699	-0.125035	-0.0564256	0.984506	0.00344052	-0.176384	1.42026	-0.144426	-0.252241	0.820028	-0.155181	-0.338848	0.386152	-0.156911	-0.601883	0.137273	-0.086175	-0.139421	1.18001	-0.226177	-0.135672	0.834298	-0.220107	-0.0806475	0.833042	-0.268347	-0.302633	1.1998	0.0258477	-0.0590541	1.22222	0.0531476
809	8.0725	-0.117522	1.44742	0.034369	-0.275351	1.35889	0.0177593	0.0409249	0.0991411	0.126542	-0.204666	0.97298	0.190262	-0.221637	1.58519	0.104009	-0.334345	1.09321	0.300541	-0.329474	1.64971	0.0631568	-0.54296	0.838328	0.254092	-0.397266	0.947647	0.282247	0.114699	0.0713111	0.0715375	-0.119762	0.462134	0.164375	-0.0607107	0.990941	0.0653211	-0.213258	1.42645	0.199312	-0.159787	0.646758	0.196968	-0.00969247	0.240814	0.162502	-0.125672	0.0632517	0.0721443	-0.282157	1.2695	0.282357	-0.482088	0.910841	0.211945	-0.455865	0.879677	0.272276	-0.440851	0.117299	-0.133113	-0.193786	0.97437	-0.126318	-0.0450775	1.31465	-0.0729933	-0.187072	1.57867	-0.0409897	-0.106236	1.08629	-0.241251	-0.296977	1.63396	-0.0614851	-0.111619	0.737926	-0.279656	-0.0927934	0.99867	-0.253399	-0.38427	0.0510046	-0.0710276	-0.34241	0.506278	-0.125547	-0.0560482	0.983497	0.00204626	-0.175658	1.41892	-0.146029	-0.252882	0.819505	-0.155973	-0.339636	0.385524	-0.157464	-0.601361	0.135974	-0.0863883	-0.139495	1.1785	-0.227565	-0.136501	0.832754	-0.221138	-0.0818463	0.831289	-0.269708	-0.302085	1.19882	0.024541	-0.0584621	1.22126	0.0517524
810	8.08249	-0.116843	1.44654	0.0326428	-0.274698	1.35808	0.0162603	0.0480648	0.100065	0.127035	-0.203973	0.972221	0.189126	-0.220577	1.58448	0.102466	-0.332251	1.09192	0.298954	-0.328403	1.64916	0.0613084	-0.538723	0.835236	0.252338	-0.394054	0.945843	0.280921	0.122273	0.0729442	0.0719209	-0.11697	0.461755	0.164154	-0.0603115	0.990054	0.0637418	-0.212387	1.42563	0.197775	-0.15809	0.646259	0.196266	-0.00420677	0.241547	0.162811	-0.117952	0.0631636	0.0723236	-0.280946	1.26854	0.280954	-0.478142	0.908018	0.210349	-0.45222	0.877404	0.271006	-0.438422	0.115036	-0.132573	-0.19346	0.973592	-0.127375	-0.04451	1.31341	-0.074557	-0.186165	1.57772	-0.0428261	-0.106902	1.08465	-0.242705	-0.29597	1.63317	-0.0633187	-0.113395	0.736321	-0.280866	-0.0937391	0.996949	-0.254755	-0.38173	0.0500288	-0.0699353	-0.343624	0.506023	-0.126207	-0.0561086	0.982473	0.000459827	-0.175	1.4177	-0.147735	-0.253601	0.819099	-0.156902	-0.340168	0.384683	-0.15787	-0.599387	0.13343	-0.0867034	-0.139741	1.17703	-0.229008	-0.137721	0.831253	-0.222228	-0.0833712	0.8296	-0.271091	-0.30152	1.19799	0.023208	-0.057924	1.22035	0.0502738
811	8.09248	-0.116168	1.44567	0.0308657	-0.274084	1.35737	0.0146909	0.0551748	0.101185	0.127567	-0.203347	0.971438	0.187818	-0.219609	1.58384	0.100434	-0.329969	1.09065	0.297355	-0.327343	1.64864	0.0594021	-0.534041	0.831962	0.250715	-0.390518	0.944001	0.279591	0.12986	0.0746931	0.0722307	-0.114431	0.461408	0.163981	-0.059977	0.989195	0.0620429	-0.211591	1.42493	0.196128	-0.156506	0.645795	0.195611	0.00123853	0.242356	0.163027	-0.110094	0.0632313	0.0723966	-0.279319	1.26726	0.279217	-0.473864	0.905056	0.208816	-0.448129	0.875076	0.269966	-0.434669	0.112459	-0.13193	-0.193256	0.973049	-0.128437	-0.0440131	1.3122	-0.0761936	-0.185291	1.57684	-0.0447286	-0.107788	1.0831	-0.244199	-0.294969	1.63246	-0.0651896	-0.115577	0.734853	-0.282072	-0.0949707	0.995388	-0.256296	-0.377255	0.0489436	-0.0682619	-0.344979	0.505768	-0.126827	-0.0561845	0.981539	-0.00125241	-0.174435	1.41662	-0.14953	-0.254389	0.818766	-0.157967	-0.340242	0.383584	-0.158132	-0.595976	0.129408	-0.086852	-0.140154	1.17565	-0.230479	-0.139352	0.829837	-0.223379	-0.0853108	0.827935	-0.272429	-0.300936	1.19734	0.0218901	-0.0574778	1.21945	0.0487014
812	8.10247	-0.115478	1.44478	0.0290238	-0.273529	1.35674	0.013067	0.0622724	0.102479	0.128139	-0.202875	0.970723	0.186312	-0.218648	1.58323	0.0983695	-0.327543	1.08939	0.295711	-0.326297	1.64814	0.0574241	-0.528935	0.828522	0.249239	-0.386663	0.942166	0.278305	0.137225	0.0763344	0.0726736	-0.112151	0.461044	0.163836	-0.0598207	0.988392	0.0601516	-0.210838	1.42433	0.194411	-0.155062	0.645404	0.194997	0.00654522	0.243256	0.163397	-0.102266	0.0632467	0.0724923	-0.277672	1.26616	0.277329	-0.469213	0.901936	0.207403	-0.44361	0.872732	0.269143	-0.429816	0.110105	-0.131255	-0.194158	0.971897	-0.130024	-0.0436166	1.31101	-0.0778976	-0.184435	1.57602	-0.0466869	-0.108885	1.08163	-0.245708	-0.293994	1.63179	-0.0670755	-0.118272	0.733478	-0.283361	-0.0964776	0.99389	-0.257824	-0.37121	0.0482983	-0.0667499	-0.346394	0.505461	-0.127386	-0.0563528	0.980683	-0.00312191	-0.173837	1.41561	-0.151322	-0.255271	0.818428	-0.15918	-0.339967	0.382298	-0.158394	-0.591506	0.123931	-0.0863073	-0.140726	1.17441	-0.231993	-0.141407	0.828532	-0.22457	-0.0876332	0.826354	-0.273777	-0.300392	1.19679	0.0205931	-0.0570824	1.21854	0.0470519
813	8.11246	-0.114821	1.44389	0.0270866	-0.273111	1.35618	0.0113773	0.0692969	0.103926	0.128785	-0.202593	0.970251	0.184768	-0.217707	1.58268	0.0963736	-0.324935	1.08817	0.29402	-0.325291	1.64767	0.0554114	-0.523403	0.824939	0.247908	-0.382513	0.940303	0.277077	0.144494	0.0782607	0.0731199	-0.11007	0.460684	0.163714	-0.0598986	0.987636	0.058075	-0.20994	1.42367	0.192611	-0.153702	0.645027	0.194342	0.0117332	0.244286	0.163864	-0.0944802	0.0632334	0.07263	-0.276178	1.26533	0.275617	-0.464206	0.898682	0.206149	-0.438745	0.870347	0.268263	-0.424085	0.107788	-0.130347	-0.195213	0.970934	-0.131646	-0.0432855	1.30981	-0.0796939	-0.183575	1.57523	-0.0486949	-0.110192	1.08026	-0.247276	-0.293132	1.63113	-0.0691581	-0.121498	0.732192	-0.284722	-0.0982321	0.992415	-0.259283	-0.364372	0.0483289	-0.0659025	-0.347782	0.505111	-0.127922	-0.0566702	0.979919	-0.00514536	-0.173222	1.41467	-0.153108	-0.256263	0.818015	-0.160483	-0.339233	0.38083	-0.15854	-0.586745	0.11755	-0.0848663	-0.141442	1.17326	-0.233594	-0.143849	0.827346	-0.225821	-0.0903472	0.824864	-0.275144	-0.300145	1.19631	0.0192562	-0.0568087	1.21757	0.0452831
814	8.12245	-0.114157	1.44299	0.0250641	-0.27272	1.35567	0.0096332	0.0761522	0.105432	0.129431	-0.202403	0.969765	0.183212	-0.216755	1.58217	0.0943995	-0.322093	1.08698	0.292292	-0.324326	1.64725	0.0533798	-0.517454	0.821218	0.246721	-0.378053	0.93846	0.275909	0.15171	0.0805941	0.0734804	-0.108179	0.460323	0.163583	-0.0601685	0.986961	0.055864	-0.209026	1.42309	0.190738	-0.152507	0.644688	0.193684	0.016653	0.245467	0.164043	-0.0866779	0.0632389	0.0727461	-0.274779	1.26466	0.274103	-0.458914	0.895379	0.205022	-0.43357	0.867937	0.267495	-0.418288	0.105573	-0.129335	-0.196259	0.970294	-0.133189	-0.0430604	1.30859	-0.0815847	-0.182746	1.57451	-0.0507591	-0.111659	1.07899	-0.24891	-0.292283	1.63053	-0.0712601	-0.125204	0.731024	-0.286115	-0.100195	0.990988	-0.26078	-0.357643	0.0488196	-0.0656328	-0.348976	0.504666	-0.128423	-0.0571613	0.979234	-0.00734313	-0.172742	1.41386	-0.154995	-0.257508	0.817511	-0.161873	-0.338285	0.379331	-0.15858	-0.582132	0.111524	-0.0829799	-0.142293	1.17219	-0.235259	-0.146712	0.826277	-0.22712	-0.0933372	0.823483	-0.276601	-0.299992	1.19593	0.0178788	-0.0566672	1.21655	0.0434363
815	8.13244	-0.11348	1.44213	0.022976	-0.272359	1.35527	0.00784862	0.0828244	0.107131	0.130045	-0.202312	0.969241	0.181623	-0.215834	1.58175	0.0923298	-0.319025	1.08581	0.290505	-0.323383	1.64691	0.0513204	-0.51111	0.817374	0.245705	-0.373233	0.936668	0.274766	0.15876	0.0831624	0.0738612	-0.106552	0.459974	0.163409	-0.0606123	0.986364	0.0534866	-0.208214	1.42271	0.188806	-0.151495	0.644415	0.19297	0.0214057	0.246771	0.164192	-0.0788318	0.0632575	0.072797	-0.273233	1.26396	0.272428	-0.453344	0.89206	0.204027	-0.428064	0.865553	0.266853	-0.413043	0.103588	-0.128478	-0.197547	0.96984	-0.134794	-0.042962	1.30735	-0.0835897	-0.181962	1.57388	-0.0528867	-0.113288	1.07779	-0.250598	-0.291446	1.63002	-0.0733517	-0.129296	0.73006	-0.287743	-0.102374	0.98974	-0.26253	-0.351207	0.0495537	-0.0655426	-0.34984	0.504021	-0.128881	-0.0579568	0.978596	-0.00972118	-0.17245	1.41318	-0.157017	-0.259062	0.816963	-0.163355	-0.337297	0.37784	-0.158677	-0.577327	0.106169	-0.080961	-0.143272	1.17121	-0.237026	-0.150007	0.825313	-0.228448	-0.0966289	0.822239	-0.278185	-0.300136	1.19561	0.0163882	-0.056593	1.21549	0.0415061
816	8.14243	-0.112836	1.44134	0.0207617	-0.272087	1.35497	0.00602204	0.089255	0.109115	0.130638	-0.202355	0.968736	0.179957	-0.21499	1.58144	0.0900702	-0.31572	1.08467	0.288688	-0.322466	1.64668	0.0492165	-0.504396	0.813439	0.24488	-0.368113	0.934874	0.273653	0.165653	0.0859629	0.0743121	-0.105272	0.459654	0.163156	-0.0612586	0.985801	0.0509184	-0.20722	1.42231	0.186789	-0.15073	0.644198	0.192183	0.0259184	0.248184	0.164355	-0.0709831	0.0632225	0.0728371	-0.271542	1.26325	0.270598	-0.447514	0.888727	0.203168	-0.422197	0.863232	0.266297	-0.408535	0.101938	-0.12819	-0.199168	0.969291	-0.136539	-0.0430255	1.30613	-0.0857449	-0.181243	1.5734	-0.0550726	-0.115084	1.07665	-0.252351	-0.290657	1.62962	-0.0754521	-0.133823	0.729172	-0.289355	-0.104788	0.98857	-0.264332	-0.345078	0.050634	-0.0659774	-0.350298	0.503129	-0.129318	-0.0589286	0.977957	-0.0122893	-0.172191	1.41257	-0.159084	-0.260977	0.816441	-0.164873	-0.336375	0.376495	-0.158896	-0.572322	0.10093	-0.0789204	-0.144407	1.17029	-0.238893	-0.153687	0.824476	-0.229813	-0.100396	0.820988	-0.279599	-0.300305	1.19539	0.0148223	-0.0566079	1.21444	0.0394448
817	8.15242	-0.11225	1.44064	0.0184208	-0.271896	1.35479	0.00414945	0.095424	0.111343	0.131176	-0.202581	0.968272	0.178223	-0.214214	1.58123	0.0876912	-0.312192	1.08356	0.286832	-0.321553	1.64655	0.0470844	-0.49728	0.809452	0.244247	-0.362661	0.933146	0.272515	0.17245	0.0891891	0.0748507	-0.104407	0.459385	0.162818	-0.0621324	0.985257	0.0482018	-0.206078	1.42191	0.18473	-0.150248	0.644038	0.191311	0.0300456	0.249775	0.164338	-0.0631304	0.0631648	0.0728743	-0.269749	1.26259	0.268721	-0.441413	0.885376	0.202438	-0.415949	0.86091	0.265846	-0.404233	0.1003	-0.128241	-0.201013	0.968964	-0.138302	-0.0432226	1.30497	-0.0880412	-0.18056	1.57302	-0.0573049	-0.11704	1.07559	-0.254217	-0.28993	1.62936	-0.0775756	-0.138808	0.728362	-0.290871	-0.107457	0.987446	-0.26612	-0.3391	0.0517593	-0.0666411	-0.350423	0.502135	-0.129767	-0.06011	0.977332	-0.0150309	-0.171998	1.41202	-0.161207	-0.263218	0.815987	-0.166415	-0.335716	0.375403	-0.159372	-0.567455	0.0952838	-0.0770589	-0.145656	1.16942	-0.24087	-0.157706	0.82379	-0.231212	-0.104421	0.819825	-0.281127	-0.30052	1.1953	0.0131564	-0.0567539	1.21342	0.0372566
